#N canvas 406 138 828 476 10;
#X declare -lib mrpeach;
#X obj 23 23 import mrpeach;
#X obj 49 68 udpreceive 8000;
#X obj 49 119 unpackOSC;
#N canvas 137 179 1914 988 loadsoundfiles 1;
#X obj 7 65 inlet;
#X obj -19 183 soundfiler;
#N canvas 339 308 1013 978 samplebuffers 0;
#N canvas 0 0 450 300 (subpatch) 0;
#X array shotgun_shot1 86954 float 2;
#X coords 0 1 86954 -1 200 140 1;
#X restore 34 49 graph;
#N canvas 0 0 450 300 (subpatch) 0;
#X array crowd_cheer 247748 float 2;
#X coords 0 1 247748 -1 200 140 1;
#X restore 254 45 graph;
#N canvas 0 0 450 300 (subpatch) 0;
#X array shield_impact_zap 54550 float 2;
#X coords 0 1 54550 -1 200 140 1;
#X restore 497 45 graph;
#N canvas 0 0 450 300 (subpatch) 0;
#X array shotgun_shot2 86954 float 2;
#X coords 0 1 86954 -1 200 140 1;
#X restore 33 223 graph;
#N canvas 0 0 450 300 (subpatch) 0;
#X array shotgun_shot3 78963 float 2;
#X coords 0 1 78963 -1 200 140 1;
#X restore 257 229 graph;
#N canvas 0 0 450 300 (subpatch) 0;
#X array crowd_amb 1.16813e+006 float 2;
#X coords 0 1 1.16813e+006 -1 200 140 1;
#X restore 492 231 graph;
#N canvas 0 0 450 300 (subpatch) 0;
#X array crowd_boo 1.15951e+006 float 2;
#X coords 0 1 1.15951e+006 -1 200 140 1;
#X restore 33 408 graph;
#N canvas 0 0 450 300 (subpatch) 0;
#X array shield_impact_metal 42180 float 2;
#X coords 0 1 42180 -1 200 140 1;
#X restore 266 411 graph;
#X restore 6 18 pd samplebuffers;
#X msg 274 163 read -resize crowd_cheer.wav crowd_cheer;
#X obj 276 210 soundfiler;
#X obj 242 109 soundfiler;
#X obj 1 289 soundfiler;
#X msg 0 243 read -resize shotgun2.wav shotgun_shot2;
#X msg -20 137 read -resize shotgun1.wav shotgun_shot1;
#X obj 257 499 soundfiler;
#X msg 256 453 read -resize shotgun3.wav shotgun_shot3;
#X msg 278 265 read -resize crowd_amb.wav crowd_amb;
#X obj 280 312 soundfiler;
#X obj 265 393 soundfiler;
#X msg 271 356 read -resize crowd_boo.wav crowd_boo;
#X msg 281 73 read -resize shield_impact_zap.wav shield_impact_zap
;
#X msg 250 527 read -resize shield_impact_metal.wav shield_impact_metal
;
#X obj 248 591 soundfiler;
#X connect 0 0 8 0;
#X connect 0 0 15 0;
#X connect 1 0 7 0;
#X connect 3 0 4 0;
#X connect 4 0 11 0;
#X connect 5 0 3 0;
#X connect 7 0 6 0;
#X connect 8 0 1 0;
#X connect 9 0 16 0;
#X connect 10 0 9 0;
#X connect 11 0 12 0;
#X connect 12 0 14 0;
#X connect 13 0 10 0;
#X connect 14 0 13 0;
#X connect 15 0 5 0;
#X connect 16 0 17 0;
#X restore 273 64 pd loadsoundfiles;
#X obj 274 24 loadbang;
#N canvas 0 496 1914 711 playgunshot 0;
#X obj 334 147 inlet;
#X obj 348 496 dac~;
#X obj 330 195 random 2;
#X obj 359 245 route 0 1 2;
#X obj 357 336 tabplay~ shotgun_shot1;
#X obj 523 499 dac~;
#X obj 684 502 dac~;
#X obj 532 339 tabplay~ shotgun_shot2;
#X obj 693 342 tabplay~ shotgun_shot3;
#X obj 428 171 bng 15 250 50 0 empty empty empty 17 7 0 10 -262144
-1 -1;
#X connect 0 0 2 0;
#X connect 2 0 3 0;
#X connect 3 0 4 0;
#X connect 3 1 7 0;
#X connect 3 2 8 0;
#X connect 4 0 1 0;
#X connect 4 0 1 1;
#X connect 7 0 5 0;
#X connect 7 0 5 1;
#X connect 8 0 6 0;
#X connect 8 0 6 1;
#X connect 9 0 2 0;
#X restore 41 225 pd playgunshot;
#X obj 237 12 bng 15 250 50 0 empty empty empty 17 7 0 10 -262144 -1
-1;
#N canvas 79 688 1914 366 crowd 1;
#X obj 139 50 loadbang;
#X obj 187 107 bng 15 250 50 0 empty empty empty 17 7 0 10 -262144
-1 -1;
#X obj 135 395 dac~;
#X obj 58 -7 inlet;
#X obj 118 12 unpack f f;
#X obj 716 113 bng 15 250 50 0 empty empty empty 17 7 0 10 -262144
-1 -1;
#X obj 140 142 tabplay~ crowd_cheer;
#X obj 669 148 tabplay~ crowd_amb;
#X obj 702 337 dac~;
#X obj 128 217 *~;
#X obj 694 228 *~;
#X msg 730 190 0.2;
#X obj 667 52 loadbang;
#X connect 0 0 6 0;
#X connect 1 0 6 0;
#X connect 3 0 4 0;
#X connect 4 0 9 0;
#X connect 5 0 7 0;
#X connect 6 0 9 1;
#X connect 6 1 1 0;
#X connect 7 0 10 0;
#X connect 7 1 5 0;
#X connect 9 0 2 0;
#X connect 9 0 2 1;
#X connect 10 0 8 0;
#X connect 10 0 8 1;
#X connect 11 0 10 1;
#X connect 12 0 7 0;
#X restore 428 222 pd crowd;
#X obj 48 168 routeOSC /player/guns;
#X obj 429 169 routeOSC /crowd;
#N canvas 813 270 719 557 playhitmarker 1;
#X obj -252 484 dac~;
#X obj 57 378 s~ feedback;
#X obj -461 175 r~ feedback;
#X obj -397 251 delwrite~ hitmarkerdelay 100;
#X obj 55 208 vd~ hitmarkerdelay;
#X obj 57 173 sig~;
#X obj 189 259 / 10;
#X obj 240 184 random 5;
#X obj -16 332 random 10;
#X obj -117 404 *~ 0.5;
#X obj 77 301 *~ 0.03;
#X obj -19 383 / 10;
#X obj -93 45 inlet;
#X obj 27 135 50;
#X obj -195 113 tabplay~ shield_impact_zap;
#X obj -371 66 tabplay~ shield_impact_metal;
#X obj -364 12 bng 15 250 50 0 empty empty empty 17 7 0 10 -262144
-1 -1;
#X connect 2 0 3 0;
#X connect 4 0 9 0;
#X connect 4 0 10 0;
#X connect 5 0 4 0;
#X connect 6 0 10 1;
#X connect 7 0 6 0;
#X connect 8 0 11 0;
#X connect 9 0 0 0;
#X connect 9 0 0 1;
#X connect 10 0 1 0;
#X connect 11 0 9 1;
#X connect 12 0 13 1;
#X connect 12 0 14 0;
#X connect 12 0 15 0;
#X connect 13 0 5 0;
#X connect 14 0 0 0;
#X connect 14 0 0 1;
#X connect 14 0 3 0;
#X connect 14 1 8 0;
#X connect 14 1 13 0;
#X connect 15 0 3 0;
#X connect 15 0 0 0;
#X connect 15 0 0 1;
#X connect 16 0 15 0;
#X restore 276 307 pd playhitmarker;
#X obj 162 321 print;
#X obj 189 170 routeOSC /player/hit/shield;
#X obj 275 231 bng 15 250 50 0 empty empty empty 17 7 0 10 -262144
-1 -1;
#X connect 1 0 2 0;
#X connect 2 0 8 0;
#X connect 2 0 9 0;
#X connect 2 0 12 0;
#X connect 4 0 3 0;
#X connect 6 0 3 0;
#X connect 8 0 5 0;
#X connect 9 0 7 0;
#X connect 12 0 10 0;
#X connect 12 0 11 0;
#X connect 13 0 10 0;
