#N canvas 890 171 450 291 10;
#X declare -lib mrpeach;
#X obj 23 23 import mrpeach;
#X obj 49 68 udpreceive 8000;
#X obj 49 119 unpackOSC;
#N canvas 1086 356 450 368 loadsoundfiles 0;
#X obj 7 65 inlet;
#X obj 19 246 soundfiler;
#X msg 18 200 read -resize shotgun.wav shotgun_shot;
#N canvas 1272 537 450 300 samplebuffers 0;
#N canvas 0 0 450 300 (subpatch) 0;
#X array shotgun_shot 86758 float 2;
#X coords 0 1 86758 -1 200 140 1;
#X restore 32 43 graph;
#N canvas 0 0 450 300 (subpatch) 0;
#X array crowd_cheer 663311 float 2;
#X coords 0 1 663311 -1 200 140 1;
#X restore 254 45 graph;
#X restore 6 18 pd samplebuffers;
#X msg 52 109 read -resize crowd_cheer.wav crowd_cheer;
#X obj 50 139 soundfiler;
#X connect 0 0 2 0;
#X connect 0 0 4 0;
#X connect 2 0 1 0;
#X connect 4 0 5 0;
#X restore 273 64 pd loadsoundfiles;
#X obj 274 24 loadbang;
#N canvas -81 276 1914 935 playgunshot 0;
#X obj 322 162 inlet;
#X obj 369 314 dac~;
#X obj 325 262 tabplay~ shotgun_shot 2;
#X connect 0 0 2 0;
#X connect 2 0 1 0;
#X connect 2 1 1 1;
#X restore 41 225 pd playgunshot;
#X obj 237 12 bng 15 250 50 0 empty empty empty 17 7 0 10 -262144 -1
-1;
#N canvas 877 246 450 300 crowd 0;
#X obj 126 176 dac~;
#X obj 128 106 *~;
#X obj 107 -33 inlet;
#X obj 42 42 print;
#X obj 158 -33 loadbang;
#X obj 182 22 tabplay~ crowd_cheer;
#X obj 235 -15 bng 15 250 50 0 empty empty empty 17 7 0 10 -262144
-1 -1;
#X connect 1 0 0 0;
#X connect 1 0 0 1;
#X connect 2 0 1 0;
#X connect 2 0 3 0;
#X connect 4 0 5 0;
#X connect 5 0 1 1;
#X connect 5 1 6 0;
#X connect 6 0 5 0;
#X restore 205 223 pd crowd;
#X obj 48 168 routeOSC /player/guns;
#X obj 208 169 routeOSC /crowd;
#X connect 1 0 2 0;
#X connect 2 0 8 0;
#X connect 2 0 9 0;
#X connect 4 0 3 0;
#X connect 6 0 3 0;
#X connect 8 0 5 0;
#X connect 9 0 7 0;
