#N canvas 224 538 450 291 10;
#X declare -lib mrpeach;
#X obj 23 23 import mrpeach;
#X obj 49 68 udpreceive 8000;
#X obj 49 119 unpackOSC;
#N canvas 1084 360 450 368 loadsoundfiles 0;
#X obj 7 65 inlet;
#X obj 19 246 soundfiler;
#X msg 18 200 read -resize shotgun.wav shotgun_shot;
#N canvas 724 80 1013 249 samplebuffers 0;
#N canvas 0 0 450 300 (subpatch) 0;
#X array shotgun_shot 86758 float 2;
#X coords 0 1 86758 -1 200 140 1;
#X restore 32 43 graph;
#N canvas 0 0 450 300 (subpatch) 0;
#X array crowd_cheer 663311 float 2;
#X coords 0 1 663311 -1 200 140 1;
#X restore 254 45 graph;
#N canvas 0 0 450 300 (subpatch) 0;
#X array hitmarker 13335 float 2;
#X coords 0 1 13335 -1 200 140 1;
#X restore 497 45 graph;
#X restore 6 18 pd samplebuffers;
#X msg 40 119 read -resize crowd_cheer.wav crowd_cheer;
#X obj 41 161 soundfiler;
#X msg 205 43 read -resize hitmarker.wav hitmarker;
#X obj 205 78 soundfiler;
#X connect 0 0 2 0;
#X connect 0 0 4 0;
#X connect 0 0 6 0;
#X connect 2 0 1 0;
#X connect 4 0 5 0;
#X connect 6 0 7 0;
#X restore 273 64 pd loadsoundfiles;
#X obj 274 24 loadbang;
#N canvas 321 197 1920 1118 playgunshot 1;
#X obj 322 162 inlet;
#X obj 369 314 dac~;
#X obj 325 262 tabplay~ shotgun_shot 2;
#X obj 345 504 delwrite~;
#X connect 0 0 2 0;
#X connect 2 0 1 0;
#X connect 2 1 1 1;
#X restore 41 225 pd playgunshot;
#X obj 237 12 bng 15 250 50 0 empty empty empty 17 7 0 10 -262144 -1
-1;
#N canvas -8 -8 1920 1118 crowd 0;
#X obj 126 176 dac~;
#X obj 128 106 *~;
#X obj 107 -33 inlet;
#X obj 42 42 print;
#X obj 158 -33 loadbang;
#X obj 182 22 tabplay~ crowd_cheer;
#X obj 235 -15 bng 15 250 50 0 empty empty empty 17 7 0 10 -262144
-1 -1;
#X connect 1 0 0 0;
#X connect 1 0 0 1;
#X connect 2 0 1 0;
#X connect 2 0 3 0;
#X connect 4 0 5 0;
#X connect 5 0 1 1;
#X connect 5 1 6 0;
#X connect 6 0 5 0;
#X restore 353 223 pd crowd;
#X obj 48 168 routeOSC /player/guns;
#X obj 356 169 routeOSC /crowd;
#N canvas 809 278 719 557 playhitmarker 1;
#X obj -252 484 dac~;
#X obj -194 114 tabplay~ hitmarker;
#X obj 57 378 s~ feedback;
#X obj -425 143 r~ feedback;
#X obj -424 206 delwrite~ hitmarkerdelay 100;
#X obj 55 208 vd~ hitmarkerdelay;
#X obj 57 173 sig~;
#X obj 189 259 / 10;
#X obj 240 184 random 5;
#X obj -16 332 random 10;
#X obj -117 404 *~ 0.5;
#X obj 77 301 *~ 0.03;
#X obj -19 383 / 10;
#X obj -93 45 inlet;
#X obj 27 135 50;
#X connect 1 0 0 0;
#X connect 1 0 0 1;
#X connect 1 0 4 0;
#X connect 1 1 9 0;
#X connect 1 1 14 0;
#X connect 3 0 4 0;
#X connect 5 0 10 0;
#X connect 5 0 11 0;
#X connect 6 0 5 0;
#X connect 7 0 11 1;
#X connect 8 0 7 0;
#X connect 9 0 12 0;
#X connect 10 0 0 0;
#X connect 10 0 0 1;
#X connect 11 0 2 0;
#X connect 12 0 10 1;
#X connect 13 0 14 1;
#X connect 13 0 1 0;
#X connect 14 0 6 0;
#X restore 193 224 pd playhitmarker;
#X obj 189 170 routeOSC /player/hitmarker;
#X connect 1 0 2 0;
#X connect 2 0 8 0;
#X connect 2 0 9 0;
#X connect 2 0 11 0;
#X connect 4 0 3 0;
#X connect 6 0 3 0;
#X connect 8 0 5 0;
#X connect 9 0 7 0;
#X connect 11 0 10 0;
